<?xml version="1.0" encoding="UTF-8" standalone="no"?>
<svg
   xmlns:dc="http://purl.org/dc/elements/1.1/"
   xmlns:cc="http://creativecommons.org/ns#"
   xmlns:rdf="http://www.w3.org/1999/02/22-rdf-syntax-ns#"
   xmlns:svg="http://www.w3.org/2000/svg"
   xmlns="http://www.w3.org/2000/svg"
   xmlns:sodipodi="http://sodipodi.sourceforge.net/DTD/sodipodi-0.dtd"
   xmlns:inkscape="http://www.inkscape.org/namespaces/inkscape"
   id="Layer_1"
   enable-background="new 0 0 512 512"
   height="512"
   viewBox="0 0 512 512"
   width="512"
   version="1.1"
   sodipodi:docname="006-weight scale.svg"
   inkscape:version="0.92.3 (2405546, 2018-03-11)">
  <metadata
     id="metadata21">
    <rdf:RDF>
      <cc:Work
         rdf:about="">
        <dc:format>image/svg+xml</dc:format>
        <dc:type
           rdf:resource="http://purl.org/dc/dcmitype/StillImage" />
      </cc:Work>
    </rdf:RDF>
  </metadata>
  <defs
     id="defs19" />
  <sodipodi:namedview
     pagecolor="#ffffff"
     bordercolor="#666666"
     borderopacity="1"
     objecttolerance="10"
     gridtolerance="10"
     guidetolerance="10"
     inkscape:pageopacity="0"
     inkscape:pageshadow="2"
     inkscape:window-width="1895"
     inkscape:window-height="1080"
     id="namedview17"
     showgrid="false"
     inkscape:zoom="0.39611816"
     inkscape:cx="59.263178"
     inkscape:cy="263.92007"
     inkscape:window-x="25"
     inkscape:window-y="0"
     inkscape:window-maximized="1"
     inkscape:current-layer="Layer_1" />
  <path
     style="fill:#2e2ee6;fill-opacity:1"
     d="M 50 0 C 22.43 0 0 22.43 0 50 L 0 462 C 0 489.57 22.43 512 50 512 L 462 512 C 489.57 512 512 489.57 512 462 L 512 50 C 512 22.43 489.57 0 462 0 L 50 0 z "
     id="XMLID_581_" />
  <path
     style="fill:#bebebe;fill-opacity:1"
     inkscape:connector-curvature="0"
     d="M 54,54 H 458 V 458 H 54 Z"
     id="XMLID_503_" />
  <path
     style="fill:#5e5eec;fill-opacity:1"
     d="M 256 88 C 191.854 88 139.66797 140.18603 139.66797 204.33203 C 139.66797 209.85503 144.14597 214.33203 149.66797 214.33203 L 225.60938 214.33203 C 229.81938 227.09303 241.848 236.33203 256 236.33203 C 270.152 236.33203 282.18063 227.09303 286.39062 214.33203 L 362.33203 214.33203 C 367.85403 214.33203 372.33203 209.85503 372.33203 204.33203 C 372.33203 140.18603 320.146 88 256 88 z M 244 204.33203 L 268 204.33203 C 268 210.94903 262.617 216.33203 256 216.33203 C 249.383 216.33203 244 210.94903 244 204.33203 z "
     id="XMLID_970_" />
  <circle
     style="fill:#2e2ee6;stroke-width:1.45899987;fill-opacity:1"
     r="32.097996"
     cy="204.33299"
     cx="256"
     id="XMLID_1637_" />
  <path
     id="XMLID_1349_"
     d="m 98,140.333 c 5.522,0 10,-4.477 10,-10 V 108 h 22.333 c 5.522,0 10,-4.477 10,-10 0,-5.523 -4.478,-10 -10,-10 H 98 c -5.522,0 -10,4.477 -10,10 v 32.333 c 0,5.523 4.478,10 10,10 z"
     inkscape:connector-curvature="0"
     style="fill:#5e5eec;fill-opacity:1" />
  <path
     id="XMLID_1350_"
     d="m 424,98 c 0,-5.523 -4.478,-10 -10,-10 h -32.333 c -5.522,0 -10,4.477 -10,10 0,5.523 4.478,10 10,10 H 404 v 22.333 c 0,5.523 4.478,10 10,10 5.522,0 10,-4.477 10,-10 z"
     inkscape:connector-curvature="0"
     style="fill:#5e5eec;fill-opacity:1" />
  <path
     id="XMLID_1352_"
     d="m 88,414 c 0,5.523 4.478,10 10,10 h 32.333 c 5.522,0 10,-4.477 10,-10 0,-5.523 -4.478,-10 -10,-10 H 108 v -22.333 c 0,-5.523 -4.478,-10 -10,-10 -5.522,0 -10,4.477 -10,10 z"
     inkscape:connector-curvature="0"
     style="fill:#5e5eec;fill-opacity:1" />
  <path
     id="XMLID_1357_"
     d="m 414,371.667 c -5.522,0 -10,4.477 -10,10 V 404 h -22.333 c -5.522,0 -10,4.477 -10,10 0,5.523 4.478,10 10,10 H 414 c 5.522,0 10,-4.477 10,-10 v -32.333 c 0,-5.523 -4.478,-10 -10,-10 z"
     inkscape:connector-curvature="0"
     style="fill:#5e5eec;fill-opacity:1" />
  <rect
     style="fill:#2e2ee6;fill-opacity:1;stroke-width:1.07597864;paint-order:markers stroke fill"
     id="rect925"
     width="117.9222"
     height="19.875057"
     x="84.095284"
     y="303.14954"
     ry="9.9375286"
     transform="rotate(-35.574577)" />
</svg>
