<?xml version="1.0" encoding="UTF-8" standalone="no"?>
<svg
   xmlns:dc="http://purl.org/dc/elements/1.1/"
   xmlns:cc="http://creativecommons.org/ns#"
   xmlns:rdf="http://www.w3.org/1999/02/22-rdf-syntax-ns#"
   xmlns:svg="http://www.w3.org/2000/svg"
   xmlns="http://www.w3.org/2000/svg"
   xmlns:sodipodi="http://sodipodi.sourceforge.net/DTD/sodipodi-0.dtd"
   xmlns:inkscape="http://www.inkscape.org/namespaces/inkscape"
   id="Layer_1"
   enable-background="new 0 0 512 512"
   height="512"
   viewBox="0 0 512 512"
   width="512"
   version="1.1"
   sodipodi:docname="014-smartwatch.svg"
   inkscape:version="0.92.3 (2405546, 2018-03-11)">
  <metadata
     id="metadata16">
    <rdf:RDF>
      <cc:Work
         rdf:about="">
        <dc:format>image/svg+xml</dc:format>
        <dc:type
           rdf:resource="http://purl.org/dc/dcmitype/StillImage" />
      </cc:Work>
    </rdf:RDF>
  </metadata>
  <defs
     id="defs14" />
  <sodipodi:namedview
     pagecolor="#ffffff"
     bordercolor="#666666"
     borderopacity="1"
     objecttolerance="10"
     gridtolerance="10"
     guidetolerance="10"
     inkscape:pageopacity="0"
     inkscape:pageshadow="2"
     inkscape:window-width="1895"
     inkscape:window-height="1080"
     id="namedview12"
     showgrid="false"
     inkscape:zoom="0.56019568"
     inkscape:cx="249.88231"
     inkscape:cy="179.59086"
     inkscape:window-x="25"
     inkscape:window-y="0"
     inkscape:window-maximized="1"
     inkscape:current-layer="Layer_1" />
  <path
     style="fill:#5e5eec;fill-opacity:1"
     inkscape:connector-curvature="0"
     d="M 358,420 H 154 c -22.091,0 -40,-17.909 -40,-40 V 132 c 0,-22.091 17.909,-40 40,-40 h 204 c 22.091,0 40,17.909 40,40 v 248 c 0,22.091 -17.909,40 -40,40 z"
     id="XMLID_2158_" />
  <path
     style="fill:#adadad;fill-opacity:1"
     inkscape:connector-curvature="0"
     d="M 358,92 H 154 L 171.275,33.007 C 175.269,19.37 187.776,10 201.986,10 h 108.029 c 14.209,0 26.717,9.37 30.71,23.007 z"
     id="XMLID_2157_" />
  <path
     style="fill:#adadad;fill-opacity:1"
     inkscape:connector-curvature="0"
     d="M 358,420 H 154 l 17.275,58.993 C 175.269,492.63 187.776,502 201.986,502 h 108.029 c 14.209,0 26.717,-9.37 30.71,-23.007 z"
     id="XMLID_2156_" />
  <path
     style="fill:#2e2ee6;fill-opacity:1"
     inkscape:connector-curvature="0"
     d="m 295.553,171.214 c -15.579,0 -29.628,7.16 -39.553,18.635 -9.924,-11.475 -23.974,-18.635 -39.553,-18.635 -30.07,0 -54.447,26.67 -54.447,59.57 0,46.084 94,110.002 94,110.002 0,0 94,-63.917 94,-110.002 0,-32.899 -24.377,-59.57 -54.447,-59.57 z"
     id="XMLID_34_" />
  <path
     d="m 238.12092,212.53736 c -3.85458,0.0616 -7.36531,2.34664 -8.96094,5.90821 l -10.35156,23.09179 h -41.26563 -21.30859 -0.44922 c -5.523,0 -10,4.477 -10,10 0,4.63819 3.16253,8.52749 7.44531,9.65821 h 74.62305 c 2.86978,-0.76335 5.30506,-2.77638 6.55664,-5.56836 l 2.14063,-4.77344 11.80468,38.29492 c 1.167,3.787 4.46244,6.52928 8.39844,6.98828 0.389,0.045 0.77516,0.0664 1.16016,0.0664 3.515,0 6.81014,-1.85359 8.61914,-4.93359 l 17.47461,-29.73243 h 41.68554 24.27539 9.81641 c 5.523,0 10,-4.477 10,-10 0,-5.37675 -4.24592,-9.75004 -9.56641,-9.97851 h -82.26172 c -3.41721,0.11282 -6.55204,1.95147 -8.29296,4.91211 l -8.87891,15.10742 -12.94336,-41.98633 c -1.227,-3.979 -4.78931,-6.78211 -8.94531,-7.03711 -0.25956,-0.0159 -0.51842,-0.0217 -0.77539,-0.0176 z"
     id="XMLID_1514_"
     inkscape:connector-curvature="0"
     style="fill:#bebebe;fill-opacity:1" />
</svg>
