<?xml version="1.0" encoding="UTF-8" standalone="no"?>
<svg
   xmlns:dc="http://purl.org/dc/elements/1.1/"
   xmlns:cc="http://creativecommons.org/ns#"
   xmlns:rdf="http://www.w3.org/1999/02/22-rdf-syntax-ns#"
   xmlns:svg="http://www.w3.org/2000/svg"
   xmlns="http://www.w3.org/2000/svg"
   xmlns:sodipodi="http://sodipodi.sourceforge.net/DTD/sodipodi-0.dtd"
   xmlns:inkscape="http://www.inkscape.org/namespaces/inkscape"
   id="Layer_1"
   enable-background="new 0 0 512 512"
   height="512"
   viewBox="0 0 512 512"
   width="512"
   version="1.1"
   sodipodi:docname="021-vaulting horse.svg"
   inkscape:version="0.92.3 (2405546, 2018-03-11)">
  <metadata
     id="metadata19">
    <rdf:RDF>
      <cc:Work
         rdf:about="">
        <dc:format>image/svg+xml</dc:format>
        <dc:type
           rdf:resource="http://purl.org/dc/dcmitype/StillImage" />
      </cc:Work>
    </rdf:RDF>
  </metadata>
  <sodipodi:namedview
     pagecolor="#ffffff"
     bordercolor="#666666"
     borderopacity="1"
     objecttolerance="10"
     gridtolerance="10"
     guidetolerance="10"
     inkscape:pageopacity="0"
     inkscape:pageshadow="2"
     inkscape:window-width="1895"
     inkscape:window-height="1080"
     id="namedview17"
     showgrid="false"
     inkscape:zoom="1.5844727"
     inkscape:cx="257.26225"
     inkscape:cy="256"
     inkscape:window-x="25"
     inkscape:window-y="0"
     inkscape:window-maximized="1"
     inkscape:current-layer="Layer_1" />
  <defs
     id="defs16" />
  <path
     inkscape:connector-curvature="0"
     id="path3"
     d="m 400.26994,368.72265 c -5.10156,-10.66667 -10.20313,-21.33333 -15.30469,-32 -85.64453,0 -171.28907,0 -256.9336,0 -5.10156,10.66667 -10.20312,21.33333 -15.30468,32 95.84766,0 191.69531,0 287.54297,0 z"
     style="fill:#bebebe;fill-opacity:1" />
  <path
     style="fill:#2e2ee6;fill-opacity:1"
     d="m 357.00781,282 c 28.56831,61.40533 57.13567,122.81109 85.70317,184.21679 3.2631,7.38871 11.9116,5.57097 18.384,5.78321 14.0567,-0.0532 28.1202,0.10679 42.1727,-0.0805 7.7397,-0.70911 11.0854,-10.38141 6.7644,-16.36141 -26.9143,-57.85269 -53.8287,-115.70538 -80.743,-173.55807 -24.09376,0 -48.18751,0 -72.28127,0 z"
     id="path992"
     inkscape:connector-curvature="0" />
  <path
     style="fill:#2e2ee6;fill-opacity:1"
     d="M 82.71094,282 C 55.32258,340.99875 27.73678,399.91314 0.47185,458.96462 -2.14992,466.28094 5.20671,473.39579 12.45199,472 c 16.40206,-0.0685 32.814,0.13748 49.20983,-0.10384 7.86811,-1.24875 9.07603,-10.07379 12.38492,-15.90599 26.98157,-57.99684 53.96309,-115.9937 80.94545,-173.99017 -24.09375,0 -48.1875,0 -72.28125,0 z"
     id="path6"
     inkscape:connector-curvature="0" />
  <path
     inkscape:connector-curvature="0"
     id="path9"
     d="m 61.57825,130.2794 c -37.23908,4.68031 -64.96007,42.10158 -61.5735,79.00283 0,21.85905 0,43.71809 0,65.57714 1.3352,13.56477 16.69539,9.31005 26.05715,10 158.64761,0 317.29523,0 475.94283,0 13.565,-1.33478 9.31,-16.69543 10,-26.05715 -0.6401,-23.78325 1.5257,-47.77143 -1.6202,-71.37969 -6.2902,-32.19368 -36.1267,-57.24999 -68.8038,-58.16255 -46.46414,-0.93427 -93.02512,-0.13392 -139.52651,-0.40061 -76.72089,0.16242 -153.47877,-0.3246 -230.17658,0.24307 -3.43313,0.39232 -6.86626,0.78464 -10.29939,1.17696 z"
     style="fill:#5e5eec;fill-opacity:1" />
  <path
     style="fill:#2e2ee6;fill-opacity:1"
     d="m 351.06679,42.000654 c -28.9954,0.0981 -56.3388,19.406869 -67.1192,46.15599 -5.1865,11.74368 -6.0886,24.691126 -5.7343,37.359196 0.056,8.5911 -0.4483,17.62793 3.0617,25.6579 6.7499,14.7157 26.2792,21.3032 40.5265,13.5579 9.8759,-4.81358 16.1753,-15.3893 16.1959,-26.27692 0.6226,-8.29755 -0.2334,-16.66757 0.4959,-24.94501 1.7357,-9.0409 13.2755,-15.004606 21.1101,-9.26041 6.0467,3.63983 7.0105,10.93507 6.6099,17.3421 0,2.52509 0,5.05018 0,7.57527 20,0 40,0 59.99998,0 0.089,-12.89995 0.4568,-26.14281 -4.3857,-38.365406 -9.78078,-27.811491 -37.47808,-48.19407 -67.02808,-48.76696 -1.2437,-0.0419 -2.4885,-0.053 -3.7327,-0.0336 z"
     id="path869-2"
     inkscape:connector-curvature="0" />
  <path
     style="fill:#2e2ee6;fill-opacity:1"
     d="m 126.53408,42.000653 c -28.9954,0.0981 -56.3388,19.40687 -67.1192,46.15599 -5.1865,11.74368 -6.0886,24.691127 -5.7343,37.359197 0.056,8.5911 -0.4483,17.62793 3.0617,25.6579 6.7499,14.7157 26.2792,21.3032 40.5265,13.5579 9.8759,-4.81358 16.1753,-15.3893 16.1959,-26.27692 0.6226,-8.29755 -0.2334,-16.66757 0.4959,-24.94501 1.7357,-9.0409 13.2755,-15.004607 21.1101,-9.26041 6.0467,3.63983 7.0105,10.93507 6.6099,17.34209 0,2.5251 0,5.05019 0,7.57528 20,0 40,0 60.00004,0 0.089,-12.89995 0.4568,-26.14281 -4.38574,-38.365407 -9.7808,-27.81149 -37.4781,-48.19407 -67.0281,-48.76696 -1.2437,-0.0419 -2.4885,-0.053 -3.7327,-0.0336 z"
     id="path12"
     inkscape:connector-curvature="0" />
</svg>
