<?xml version="1.0" encoding="UTF-8" standalone="no"?>
<svg
   xmlns:dc="http://purl.org/dc/elements/1.1/"
   xmlns:cc="http://creativecommons.org/ns#"
   xmlns:rdf="http://www.w3.org/1999/02/22-rdf-syntax-ns#"
   xmlns:svg="http://www.w3.org/2000/svg"
   xmlns="http://www.w3.org/2000/svg"
   xmlns:sodipodi="http://sodipodi.sourceforge.net/DTD/sodipodi-0.dtd"
   xmlns:inkscape="http://www.inkscape.org/namespaces/inkscape"
   height="512"
   viewBox="0 0 512 512"
   width="512"
   version="1.1"
   id="svg8"
   sodipodi:docname="048-protein supplement.svg"
   inkscape:version="0.92.3 (2405546, 2018-03-11)">
  <metadata
     id="metadata14">
    <rdf:RDF>
      <cc:Work
         rdf:about="">
        <dc:format>image/svg+xml</dc:format>
        <dc:type
           rdf:resource="http://purl.org/dc/dcmitype/StillImage" />
      </cc:Work>
    </rdf:RDF>
  </metadata>
  <defs
     id="defs12" />
  <sodipodi:namedview
     pagecolor="#ffffff"
     bordercolor="#666666"
     borderopacity="1"
     objecttolerance="10"
     gridtolerance="10"
     guidetolerance="10"
     inkscape:pageopacity="0"
     inkscape:pageshadow="2"
     inkscape:window-width="1895"
     inkscape:window-height="1080"
     id="namedview10"
     showgrid="false"
     inkscape:zoom="1.5844727"
     inkscape:cx="257.26225"
     inkscape:cy="256"
     inkscape:window-x="25"
     inkscape:window-y="0"
     inkscape:window-maximized="1"
     inkscape:current-layer="svg8" />
  <path
     style="fill:#2e2ee6;fill-opacity:1"
     d="M 246,86.141 H 106 c -53.019,0 -96,42.981 -96,96 v 255.87 C 10,473.351 38.649,502 73.989,502 H 278.011 C 313.351,502 342,473.351 342,438.011 v -255.87 c 0,-53.019 -42.981,-96 -96,-96 z"
     id="XMLID_41_" />
  <path
     style="fill:#adadad;fill-opacity:1"
     d="m 10,182.141 h 332 v 255.87 H 10 Z"
     id="XMLID_495_" />
  <path
     style="fill:#bebebe;fill-opacity:1"
     d="m 436,230 h -88 c -11.046,0 -20,8.954 -20,20 v 36 h 128 v -36 c 0,-11.046 -8.954,-20 -20,-20 z"
     id="XMLID_782_"
     inkscape:connector-curvature="0" />
  <path
     style="fill:#adadad;fill-opacity:1"
     d="M 240,10 H 112 C 100.954,10 92,18.954 92,30 V 86.141 H 260 V 30 c 0,-11.046 -8.954,-20 -20,-20 z"
     id="XMLID_781_" />
  <path
     style="fill:#2e2ee6;fill-opacity:1"
     d="M 176,234.333 120.494,338.407 H 176 v 47.411 l 55.506,-93.666 H 176 Z"
     id="XMLID_14_" />
  <path
     style="fill:#5e5eec;fill-opacity:1"
     d="M 448,502 H 336 c -22.091,0 -40,-17.909 -40,-40 V 326 c 0,-22.091 17.909,-40 40,-40 h 112 c 22.091,0 40,17.909 40,40 v 136 c 0,22.091 -17.909,40 -40,40 z"
     id="XMLID_9_"
     inkscape:connector-curvature="0" />
</svg>
