<?xml version="1.0" encoding="UTF-8" standalone="no"?>
<svg
   xmlns:dc="http://purl.org/dc/elements/1.1/"
   xmlns:cc="http://creativecommons.org/ns#"
   xmlns:rdf="http://www.w3.org/1999/02/22-rdf-syntax-ns#"
   xmlns:svg="http://www.w3.org/2000/svg"
   xmlns="http://www.w3.org/2000/svg"
   xmlns:sodipodi="http://sodipodi.sourceforge.net/DTD/sodipodi-0.dtd"
   xmlns:inkscape="http://www.inkscape.org/namespaces/inkscape"
   id="Capa_1"
   enable-background="new 0 0 512 512"
   height="512"
   viewBox="0 0 512 512"
   width="512"
   version="1.1"
   sodipodi:docname="body-scale.svg"
   inkscape:version="1.0.2 (1.0.2+r75+1)">
  <metadata
     id="metadata51">
    <rdf:RDF>
      <cc:Work
         rdf:about="">
        <dc:format>image/svg+xml</dc:format>
        <dc:type
           rdf:resource="http://purl.org/dc/dcmitype/StillImage" />
      </cc:Work>
    </rdf:RDF>
  </metadata>
  <defs
     id="defs49" />
  <sodipodi:namedview
     pagecolor="#ffffff"
     bordercolor="#666666"
     borderopacity="1"
     objecttolerance="10"
     gridtolerance="10"
     guidetolerance="10"
     inkscape:pageopacity="0"
     inkscape:pageshadow="2"
     inkscape:window-width="1896"
     inkscape:window-height="1080"
     id="namedview47"
     showgrid="false"
     inkscape:zoom="0.41909334"
     inkscape:cx="379.00909"
     inkscape:cy="223.27766"
     inkscape:window-x="24"
     inkscape:window-y="0"
     inkscape:window-maximized="1"
     inkscape:current-layer="Capa_1" />
  <path
     id="path2"
     style="fill:#adadad;fill-opacity:1;stroke-width:0.915013"
     d="M 255.98633 28.300781 C 231.34593 28.300781 209.04 38.287447 192.88086 54.421875 C 185.17737 62.151907 178.8505 71.282051 174.36328 81.398438 L 61.611328 81.398438 C 43.454721 81.398438 28.619141 96.235063 28.619141 114.39258 L 28.619141 450.06836 C 28.619141 468.19934 43.454721 483.0625 61.611328 483.0625 L 450.38867 483.0625 C 468.51874 483.0625 483.38086 468.20026 483.38086 450.06836 L 483.38086 114.39258 C 483.38086 96.261598 468.51874 81.398437 450.38867 81.398438 L 337.61133 81.398438 C 333.12411 71.282051 326.82287 62.151907 319.09375 54.421875 C 302.93463 38.287447 280.62672 28.300781 255.98633 28.300781 z " />
  <path
     clip-rule="evenodd"
     d="m 63.375076,121.13593 v 322.16151 c 0,2.74961 2.256422,4.98042 4.980416,4.98042 H 443.61888 c 2.74962,0 4.98043,-2.23081 4.98043,-4.98042 V 121.13593 c 0,-2.724 -2.23081,-4.95481 -4.98043,-4.95481 h -63.62452 v 1.34874 c 0,68.50429 -55.50654,124.01357 -124.00717,124.01357 -68.47501,0 -124.00717,-55.50928 -124.00717,-124.01357 0,-0.44103 0.0257,-0.9077 0.0257,-1.34874 H 68.355492 c -2.723079,9.2e-4 -4.980416,2.23173 -4.980416,4.95481 z"
     fill="#ecf4ff"
     fill-rule="evenodd"
     id="path6"
     style="fill:#5e5eec;fill-opacity:1;stroke-width:0.915013" />
  <path
     clip-rule="evenodd"
     d="M 342.74783,358.55533 H 169.22655 c -2.59406,0 -4.74618,2.1274 -4.74618,4.74708 v 36.26289 c 0,2.61969 2.15304,4.74709 4.74618,4.74709 h 173.52128 c 2.61968,0 4.74618,-2.1274 4.74618,-4.74709 v -36.26289 c 0,-2.6206 -2.1265,-4.74708 -4.74618,-4.74708 z"
     fill="#b3e59f"
     fill-rule="evenodd"
     id="path22"
     style="fill:#adadad;fill-opacity:1;stroke-width:0.915013" />
  <path
     d="m 264.13172,95.606141 c -3.6509,-1.355135 -7.49121,-1.774211 -11.24002,-1.270039 l -9.18491,-20.050685 c -1.57747,-3.44594 -5.65111,-4.959371 -9.09705,-3.381889 -3.44686,1.578398 -4.96029,5.652038 -3.38098,9.097977 l 9.19497,20.074475 c -7.45919,6.66587 -10.07521,17.67532 -5.69138,27.2189 2.60961,5.6804 7.27161,10.00292 13.12861,12.17242 2.64805,0.98089 5.39492,1.4686 8.1363,1.4686 3.32241,0 6.63384,-0.71737 9.73757,-2.14297 5.67399,-2.58857 9.99835,-7.23866 12.17608,-13.092 2.18322,-5.87073 1.94623,-12.24014 -0.66613,-17.92603 -2.59498,-5.67125 -7.2524,-9.992858 -13.11306,-12.168759 z m 0.9141,25.309269 c -0.89671,2.41106 -2.6755,4.32526 -5.02434,5.39675 -2.34792,1.0788 -4.9731,1.17945 -7.39239,0.28456 -2.41838,-0.89671 -4.34448,-2.68282 -5.42328,-5.03074 -2.22165,-4.83676 -0.0888,-10.58853 4.7544,-12.82116 2.34519,-1.07423 4.97127,-1.17123 7.39423,-0.27085 2.42112,0.89855 4.34174,2.67824 5.41413,5.02159 1.08246,2.35617 1.18037,4.99141 0.27725,7.41985 z"
     id="path36"
     style="fill:#2e2ee6;fill-opacity:1;stroke-width:0.915013" />
  <path
     id="path38"
     d="m 255.98571,21.437913 c -26.14284,0 -49.87553,10.500449 -67.21595,27.49865 -0.25712,0.193068 -0.50654,0.397531 -0.73987,0.630859 -0.23425,0.234244 -0.44136,0.484542 -0.63443,0.741661 -6.95502,7.095927 -12.81901,15.260233 -17.32271,24.224618 -5.60981,13.726986 0,0 -5.60981,13.726986 -2.95916,9.233397 -4.56435,19.068173 -4.56435,29.271483 0,26.17853 10.52117,49.94139 27.55048,67.29279 0.1766,0.22876 0.36413,0.45349 0.57367,0.66303 0.21136,0.21229 0.4378,0.40239 0.66838,0.58082 17.34774,17.04761 41.11331,27.58086 67.29459,27.58086 26.21512,0 50.00917,-10.55575 67.36605,-27.63448 0.20405,-0.16196 0.40305,-0.33243 0.59155,-0.52184 0.18941,-0.18941 0.36076,-0.38836 0.52363,-0.59333 17.07688,-17.35872 27.63268,-41.15267 27.63268,-67.36963 0,-10.20331 -1.60606,-20.038093 -4.56613,-29.271491 l -5.60981,-13.723411 c -4.52017,-8.99458 -10.4116,-17.185493 -17.39956,-24.297891 -0.17934,-0.233329 -0.36941,-0.460552 -0.58261,-0.67375 -0.21136,-0.211368 -0.4378,-0.398817 -0.66838,-0.577245 C 305.92264,31.958206 282.1615,21.437913 255.98571,21.437913 Z m -6.86082,14.014715 v 9.579044 c 0,3.789985 3.07261,6.862599 6.8626,6.862599 3.7909,0 6.8626,-3.072614 6.8626,-6.862599 v -9.579044 c 17.56642,1.45487 33.58417,8.443785 46.30467,19.21349 l -6.74643,6.76252 c -2.67733,2.682818 -2.6721,7.028602 0.0107,9.705932 1.34049,1.336834 3.09263,2.005165 4.84671,2.005165 1.75866,0 3.51873,-0.671734 4.85922,-2.015889 l 6.7375,-6.753583 c 10.77519,12.718683 17.7693,28.73293 19.226,46.297527 h -9.60585 c -3.7909,0 -6.8626,3.07261 -6.8626,6.8626 0,3.78999 3.07261,6.8626 6.8626,6.8626 h 9.60585 c -1.4567,17.57008 -8.44993,33.59126 -19.22421,46.3136 l -6.74644,-6.74643 c -2.68098,-2.68007 -7.02498,-2.68007 -9.70414,0 -2.68099,2.68008 -2.68186,7.02407 -0.002,9.70414 l 6.74822,6.74823 c -12.72142,10.77519 -28.74178,17.76664 -46.31003,19.22243 v -9.60408 c 0,-3.78998 -3.07261,-6.86259 -6.8626,-6.86259 -3.7909,0 -6.86259,3.07261 -6.86259,6.86259 v 9.60408 c -17.56369,-1.45671 -33.57889,-8.4499 -46.29575,-19.226 l 6.75358,-6.7393 c 2.68282,-2.67733 2.68805,-7.02311 0.0107,-9.70593 -2.67733,-2.68373 -7.02311,-2.68713 -9.70593,-0.0107 l -6.76252,6.74822 C 182.35597,157.97982 175.36792,141.96034 173.91304,124.393 h 9.58084 c 3.7909,0 6.8626,-3.07261 6.8626,-6.86259 0,-3.78999 -3.0717,-6.86261 -6.8626,-6.86261 h -9.58084 c 1.45579,-17.561843 8.44558,-33.576176 19.21528,-46.293945 l 6.75358,6.753585 c 1.34051,1.340494 3.09704,2.010527 4.85387,2.010527 1.75591,0 3.51249,-0.670033 4.85207,-2.010527 2.68098,-2.680075 2.68007,-7.025858 0,-9.705932 l -6.75359,-6.753584 c 12.71694,-10.770611 28.72954,-17.759483 46.29047,-19.215268 z"
     sodipodi:nodetypes="scscccscccscccscccscscsssccccscccsssccccsccssscccccccsssccsscsccc"
     style="fill:#2e2ee6;fill-opacity:1;stroke-width:0.915013" />
</svg>
