<svg xmlns="http://www.w3.org/2000/svg" viewBox="1 -16 511.999 511"><path d="M454.184 295.219H57.992c-13.61 0-24.644 11.031-24.644 24.644v21.586c0 5.356 4.343 9.7 9.703 9.7h426.078c5.355 0 9.7-4.344 9.7-9.7v-21.586c0-13.613-11.032-24.644-24.645-24.644zm0 0" fill="#adadad"/><path d="M484.313 346.184H27.688c-11.145 0-20.176 9.035-20.176 20.175 0 57.93 46.96 104.891 104.89 104.891h287.196c57.93 0 104.89-46.96 104.89-104.89 0-11.141-9.035-20.176-20.175-20.176zm0 0" fill="#5e5eec"/><path d="M41.043 265.777c-12.832 0-23.648 10.657-23.656 24.036-.012 19.105 21.765 29.214 47.07 25.511 21.396-3.134 23.665-12.342 41.67-14.054 9.875 2.085 17.293 10.816 17.293 21.314v3.275c0 7.224-5.86 13.084-13.084 13.084-3.612 0-6.87 1.458-9.242 3.82a13.033 13.033 0 00-3.842 9.221l-.145 46.934c-.052 17.466 14.083 31.652 31.55 31.652h.82c15.363 0 28.156-10.524 31.58-24.7.604-2.457.916-5.007.916-7.64v-25.927c0-6.131 4.966-11.098 11.097-11.098 3.06 0 5.83-1.237 7.838-3.246a11.07 11.07 0 003.246-7.848v-27.527c0-13.948 5.189-19.517 25.88-21.555 21.954.775 22.62 14.295 45.868 14.295 23.93 0 23.93-14.332 47.86-14.332s23.93 14.332 47.86 14.332c23.933 0 23.933-14.332 47.862-14.332 23.934 0 24.23 10.875 47.864 14.332 25.3 3.703 47.082-6.406 47.07-25.512-.012-13.378-10.828-24.035-23.66-24.035H41.043z" fill="#2e2ee6"/><path d="M474.906 235.41H37.56c-9.918 0-18.34 8.117-18.157 18.031.18 9.618 8.032 17.356 17.692 17.356h277.875c4.515 0 8.879 1.613 12.308 4.55l30.65 18.658c32.02 9.656 49.898 3.14 64.562-4.135l14.023-13.413a18.908 18.908 0 0113.492-5.66h24.441c9.914 0 18.34-8.113 18.153-18.031-.18-9.618-8.032-17.356-17.692-17.356z" fill="#adadad"/><path d="M256 42.012C24.64 42.098 7.512 194.719 7.512 216.332c0 11.145 9.035 20.176 20.175 20.176h456.625c11.141 0 20.176-9.031 20.176-20.176 0-21.613-17.129-174.234-248.488-174.32zm0 0" fill="#5e5eec"/><path d="M394.904 100.8c7.368 7.797 7.02 20.091-.777 27.461-7.798 7.368-20.092 7.02-27.46-.777-7.369-7.796-20.931-34.813-13.133-42.183 7.798-7.37 34.002 7.698 41.37 15.498zM355.935 176.803c3.846 10.015-1.155 21.253-11.17 25.098-10.016 3.846-21.253-1.155-25.1-11.17-3.845-10.016-6.104-40.16 3.91-44.006 10.015-3.844 28.514 20.062 32.36 30.078zM279.934 116.906c0 10.73-8.698 19.425-19.425 19.425-10.73 0-19.425-8.697-19.425-19.425 0-10.729 8.697-39.678 19.425-39.678 10.73-.002 19.425 28.949 19.425 39.678zM201.125 188.976c-2.683 10.388-13.28 16.634-23.666 13.951-10.388-2.682-16.634-13.279-13.951-23.666 2.682-10.387 18.342-36.243 28.731-33.56 10.388 2.682 11.568 32.89 8.886 43.275zM158.255 124.36c-4.677 9.654-16.294 13.691-25.951 9.014-9.654-4.678-13.69-16.295-9.013-25.952 4.677-9.654 25.125-31.919 34.782-27.24 9.655 4.68 4.86 34.525.182 44.179z" fill="#2e2ee6"/></svg>