<svg xmlns="http://www.w3.org/2000/svg" viewBox="0 0 409.6 409.6"><path d="M389.76 353.445H287.486c-10.957 0-19.84-8.883-19.84-19.84V73.652c0-10.957 8.883-19.84 19.84-19.84H389.76c10.957 0 19.84 8.883 19.84 19.84v259.953c0 10.958-8.883 19.84-19.84 19.84z" fill="#5e5eec"/><path fill="#adadad" d="M290.627 301.855h96v23.491h-96zM290.627 259.379h96v23.491h-96zM290.627 217.498h96v23.491h-96z"/><circle cx="338.637" cy="104.873" r="19.338" fill="#2e2ee6"/><path fill="#5e5eec" d="M111.478 310.682h86.538v27.438h-86.538z"/><path d="M309.487 91.513a8.633 8.633 0 00-8.633-8.633H8.633A8.633 8.633 0 000 91.513v179.606h309.487V91.513z" fill="#2e2ee6"/><path fill="#adadad" d="M16.881 99.763h275.727v171.356H16.881z"/><path d="M0 271.119v33.845a8.633 8.633 0 008.633 8.633h292.221a8.633 8.633 0 008.633-8.633v-33.845H0zM208.508 336.143H100.98c-10.849 0-19.645 8.795-19.645 19.644h146.817c0-10.849-8.795-19.644-19.644-19.644z" fill="#2e2ee6"/></svg>