<svg xmlns="http://www.w3.org/2000/svg" viewBox="0 0 511.737 511.737"><path d="M373.148 460.598c-63.859 68.124-170.586 68.246-234.56 0-31.2-33.31-47.39-78.74-44.4-124.66l4.66-71.53 91.1-184.09 5-2.19c37.941-16.651 82.207-17.394 121.84 0l5 2.19 91.1 184.09 4.66 71.53c2.99 45.919-13.2 91.35-44.4 124.66z" fill="#adadad"/><path d="M317.288 345.297c0 34.36-27.55 62.31-61.42 62.31-33.87 0-61.42-27.95-61.42-62.31 0-26.533 34.481-34.6 61.42-34.6 26.868 0 61.42 8.035 61.42 34.6z" fill="#2e2ee6"/><ellipse cx="209.445" cy="212.832" fill="#2e2ee6" rx="24.285" ry="24.462"/><ellipse cx="302.292" cy="212.832" fill="#2e2ee6" rx="24.285" ry="24.462"/><path d="M183.461 0L2.114 106.146l104.598 183.675c15.456-9.047 30.104-17.555 29.991-17.555 83.458-48.851 112.178-157.391 64.021-241.954zM328.276 0l-17.264 30.313c-48.156 84.563-19.437 193.103 64.021 241.953l29.991 17.555 104.598-183.675z" fill="#5e5eec"/></svg>