<svg xmlns="http://www.w3.org/2000/svg" viewBox="0 0 512 512"><path d="M54.211 249.7s20.228 29.717 62.624 54.871c0 0-30.705-259.502 169.358-304.571-51.257 188.121 65.2 241.174 107.651 141.786 70.893 94.651 17.066 177.229 17.066 177.229 29.069 4.188 53.487-27.57 53.487-27.57.218 3.912.34 7.851.34 11.818C464.738 418.545 371.283 512 256 512S47.262 418.545 47.262 303.262c0-18.518 2.424-36.468 6.949-53.562z" fill="#2e2ee6"/><path d="M164.456 420.456C164.456 471.014 205.442 512 256 512s91.544-40.986 91.544-91.544c0-27.061-11.741-51.379-30.408-68.138-35.394 48.085-85.832-24.856-46.524-78.122 0 0-106.156 13.303-106.156 146.26z" fill="#5e5eec"/><path d="M222.556 476.59c0 18.608 15.086 33.694 33.695 33.694s33.694-15.086 33.694-33.695c0-9.96-4.321-18.91-11.192-25.08-13.027 17.7-31.592-9.148-17.124-28.754 0 0-39.073 4.897-39.073 53.834z" fill="#adadad"/></svg>