<?xml version="1.0" encoding="UTF-8" standalone="no"?>
<svg
   xmlns:dc="http://purl.org/dc/elements/1.1/"
   xmlns:cc="http://creativecommons.org/ns#"
   xmlns:rdf="http://www.w3.org/1999/02/22-rdf-syntax-ns#"
   xmlns:svg="http://www.w3.org/2000/svg"
   xmlns="http://www.w3.org/2000/svg"
   xmlns:sodipodi="http://sodipodi.sourceforge.net/DTD/sodipodi-0.dtd"
   xmlns:inkscape="http://www.inkscape.org/namespaces/inkscape"
   viewBox="0 0 512 512"
   version="1.1"
   id="svg16"
   sodipodi:docname="heart.svg"
   inkscape:version="1.0.2 (1.0.2+r75+1)">
  <metadata
     id="metadata22">
    <rdf:RDF>
      <cc:Work
         rdf:about="">
        <dc:format>image/svg+xml</dc:format>
        <dc:type
           rdf:resource="http://purl.org/dc/dcmitype/StillImage" />
      </cc:Work>
    </rdf:RDF>
  </metadata>
  <defs
     id="defs20" />
  <sodipodi:namedview
     pagecolor="#ffffff"
     bordercolor="#666666"
     borderopacity="1"
     objecttolerance="10"
     gridtolerance="10"
     guidetolerance="10"
     inkscape:pageopacity="0"
     inkscape:pageshadow="2"
     inkscape:window-width="752"
     inkscape:window-height="480"
     id="namedview18"
     showgrid="false"
     inkscape:zoom="0.48491704"
     inkscape:cx="256"
     inkscape:cy="256"
     inkscape:window-x="24"
     inkscape:window-y="0"
     inkscape:window-maximized="0"
     inkscape:current-layer="svg16" />
  <path
     d="M283.414 505.081a56.923 56.923 0 01-54.251.081c-96.365-51.9-211.69-165.754-211.833-260.463-.106-71.36 57.655-129.295 129.016-129.401 46.072-.069 86.522 24.004 109.45 60.264 22.822-36.329 63.199-60.521 109.271-60.591 71.361-.107 129.295 57.656 129.401 129.016.142 94.708-114.842 208.906-211.054 261.094z"
     fill="#adadad"
     id="path2" />
  <path
     d="M133.327 397.656c-67.762-3.206-99.37-24.384-108.071-42.367-9.027-18.658-7.119-43.253 5.381-50.981 13.009 7.157 50.974 18.476 106.109 21.084 45.458 2.153 115.659-1.206 191.961-29.403 18.74-6.925 39.545 2.652 46.468 21.391 6.925 18.738-2.652 39.543-21.39 46.468-72.126 26.654-148.629 37.203-220.458 33.808z"
     fill="#2e2ee6"
     id="path4" />
  <path
     d="M162.926 382.84c-18.738-6.925-28.315-27.729-21.39-46.468 6.924-18.738 27.723-28.317 46.468-21.391 59.093 21.838 121.818 28.625 186.419 20.172 53.203-6.961 91.408-22.148 106.464-30.431 13.582 6.58 18.833 30.063 9.424 50.297-12.351 26.561-46.833 44.06-106.502 51.867-79.121 10.352-153.264.942-220.883-24.046zM256 69.74c-10.34 0-18.723-8.382-18.723-18.723V18.723C237.277 8.383 245.659.001 256 0c10.34 0 18.722 8.382 18.723 18.723v32.294c0 10.34-8.382 18.722-18.723 18.723zM63.005 80.515c-7.312 7.312-19.166 7.312-26.478 0L13.692 57.68c-7.312-7.312-7.312-19.165 0-26.478 7.311-7.312 19.166-7.312 26.478 0l22.836 22.835c7.311 7.311 7.311 19.165-.001 26.478zM448.995 80.515c7.311 7.312 19.166 7.312 26.478 0l22.836-22.835c7.312-7.312 7.312-19.165 0-26.478-7.311-7.312-19.166-7.312-26.478 0l-22.836 22.835c-7.312 7.311-7.312 19.165 0 26.478z"
     fill="#5e5eec"
     id="path6" />
  <path
     d="M256 223.208c-11.997 0-22.681-8.062-29.401 1.88-6.816 10.085 8.45 25.723 29.401 25.723s36.217-15.638 29.401-25.723c-6.72-9.942-17.404-1.88-29.401-1.88z"
     fill="#2e2ee6"
     id="path12" />
  <path
     d="M191.666 231.448a25.206 25.206 0 01-19-8.652 7.5 7.5 0 0111.307-9.856 10.208 10.208 0 007.693 3.509c2.946 0 5.751-1.279 7.693-3.508a7.501 7.501 0 0111.309 9.855 25.207 25.207 0 01-19.002 8.652zM320.334 231.448a25.205 25.205 0 01-19.002-8.653 7.5 7.5 0 0111.309-9.855 10.206 10.206 0 007.693 3.508c2.945 0 5.749-1.279 7.693-3.509a7.5 7.5 0 0111.307 9.856 25.204 25.204 0 01-19 8.653z"
     fill="#2e2ee6"
     id="path14" />
</svg>
