<svg xmlns="http://www.w3.org/2000/svg" viewBox="0 0 512.001 512.001"><path d="M65.724 54.792c-12.353 3.867-18.209 18.003-12.208 29.471 13.531 25.859 42.478 68.701 93.276 89.743 38.76 16.055 87.739 5.732 101.089-26.498s-13.984-74.163-52.744-90.218C144.339 36.249 93.576 46.074 65.724 54.792z" fill="#5e5eec"/><path d="M255.999 191.391c-11.975 0-21.681-9.707-21.681-21.681 0-48.655-12.043-98.093-31.427-129.02-6.36-10.146-3.29-23.526 6.856-29.886 10.149-6.359 23.526-3.289 29.886 6.856 23.824 38.01 38.048 94.852 38.048 152.05-.001 11.975-9.707 21.681-21.682 21.681z" fill="#2e2ee6"/><path d="M31.369 255.255c0 94.184 67.767 196.624 182.13 241.229a116.961 116.961 0 0085.001 0c114.362-44.605 182.13-147.044 182.13-241.229 0-74.023-60.007-134.032-134.032-134.032-28.384 0-54.705 8.826-76.373 23.88-8.523 5.922-19.929 5.922-28.452 0-21.668-15.054-47.989-23.88-76.373-23.88-74.024 0-134.031 60.009-134.031 134.032z" fill="#adadad"/><path d="M442.668 28.682c12.353 3.866 18.209 18.003 12.208 29.472-13.531 25.859-42.478 68.701-93.276 89.743-38.76 16.055-87.739 5.732-101.089-26.498-13.351-32.23 13.984-74.163 52.744-90.218 50.797-21.041 101.56-11.216 129.413-2.499z" fill="#5e5eec"/><path d="M255.999 308.306c-10.836 0-19.62-8.785-19.62-19.621V274.42a5.356 5.356 0 015.356-5.356h28.528a5.356 5.356 0 015.356 5.356v14.265c.001 10.837-8.784 19.621-19.62 19.621zM324.865 260.668a7.5 7.5 0 00-7.5 7.5v11.623a7.5 7.5 0 007.5 7.5 7.5 7.5 0 007.5-7.5v-11.623a7.5 7.5 0 00-7.5-7.5zM187.133 260.668a7.5 7.5 0 00-7.5 7.5v11.623a7.5 7.5 0 0015 0v-11.623a7.5 7.5 0 00-7.5-7.5z" fill="#2e2ee6"/></svg>