<svg xmlns="http://www.w3.org/2000/svg" viewBox="0 0 512 512">
    <path d="M408.906 45.536c2.263 6.186 27.401 79.804-24.155 166.617-31.315 52.729-78.861 56.218-83.517 56.434-2.727-3.781-29.57-43.179-7.763-100.497C329.376 73.721 402.655 47.612 408.906 45.536z" fill="#5e5eec" />
    <path d="M408.906 45.536L301.234 268.587c4.657-.217 52.202-3.705 83.517-56.434 51.557-86.813 26.418-160.431 24.155-166.617z" fill="#2e2ee6" />
    <path d="M103.094 45.536c-2.263 6.186-27.401 79.804 24.155 166.617 31.315 52.729 78.861 56.218 83.517 56.434 2.727-3.781 29.57-43.179 7.762-100.497C182.624 73.721 109.345 47.612 103.094 45.536z" fill="#5e5eec" />
    <path d="M218.528 168.09C182.624 73.721 109.345 47.612 103.094 45.536c63.67 121.61 98.013 199.506 107.934 222.682 3.821-5.462 28.746-44.288 7.5-100.128z" fill="#2e2ee6" />
    <path d="M256 0c-7.676 7.449-96.408 97.362-82.296 260.712 8.571 99.218 75.639 137.883 82.296 141.487 6.657-3.604 73.725-42.27 82.296-141.487C352.408 97.362 263.676 7.449 256 0z" fill="#5e5eec" />
    <path d="M256 0v402.199c6.657-3.604 73.725-42.27 82.296-141.487C352.408 97.362 263.676 7.449 256 0z" fill="#2e2ee6" />
    <path d="M445.966 250.043c16.695-57.379 11.044-110.709 11.044-110.709s-32.151 14.322-112.949 66.535C281.256 246.454 261.824 317.612 256 336.79h73.813c53.655 0 101.163-35.228 116.153-86.747z" fill="#5e5eec" />
    <path d="M457.011 139.333S373.972 303.376 256 336.79h73.813c53.656 0 101.163-35.228 116.154-86.747 16.694-57.379 11.044-110.71 11.044-110.71z" fill="#2e2ee6" />
    <path d="M66.034 250.043C49.339 192.664 54.99 139.334 54.99 139.334s32.151 14.322 112.949 66.535C230.744 246.454 250.176 317.612 256 336.79h-73.813c-53.655 0-101.163-35.228-116.153-86.747z" fill="#5e5eec" />
    <path d="M256 336.79c-5.824-19.178-25.256-90.336-88.061-130.922-80.799-52.213-112.95-66.535-112.95-66.535S138.028 303.377 256 336.79z" fill="#2e2ee6" />
    <path d="M117.281 327.848c-11.242 0-20.355 9.113-20.355 20.355s4.837 12.622 13.7 19.504c2.586 2.007 14.16 20.53 14.997 23.693l19.22 72.573c7.25 27.371 29.465 48.027 57.78 48.027h106.754c28.315 0 50.53-20.656 57.78-48.027l19.22-72.573c.838-3.163 12.411-21.686 14.996-23.693 8.864-6.882 13.701-8.262 13.701-19.504s-9.113-20.355-20.355-20.355H117.28z" fill="#adadad" />
</svg>