<svg xmlns="http://www.w3.org/2000/svg" viewBox="0 0 512 512"><path d="M246 86.141H106c-53.019 0-96 42.981-96 96v255.87C10 473.351 38.649 502 73.989 502h204.022c35.34 0 63.989-28.649 63.989-63.989v-255.87c0-53.019-42.981-96-96-96z" fill="#2e2ee6"/><path d="M10 182.141h332v255.87H10z" fill="#adadad"/><path d="M436 230h-88c-11.046 0-20 8.954-20 20v36h128v-36c0-11.046-8.954-20-20-20z" fill="#bebebe"/><path d="M240 10H112c-11.046 0-20 8.954-20 20v56.141h168V30c0-11.046-8.954-20-20-20z" fill="#adadad"/><path d="M176 234.333l-55.506 104.074H176v47.411l55.506-93.666H176z" fill="#2e2ee6"/><path d="M448 502H336c-22.091 0-40-17.909-40-40V326c0-22.091 17.909-40 40-40h112c22.091 0 40 17.909 40 40v136c0 22.091-17.909 40-40 40z" fill="#5e5eec"/></svg>