<svg xmlns="http://www.w3.org/2000/svg" viewBox="0 0 512.004 512.004"><path d="M78.382 161.581c-6.896.065-13.767 2.772-19 8.106l-26.997 27.51a26.917 26.917 0 00.36 38.149L291.653 489.42c5.883 9.293 16.246 15.443 28.104 15.443h122.727c18.419 0 33.246-14.827 33.246-33.246v-20.084c0-18.419-14.827-33.246-33.246-33.246h-91.256L97.53 169.327c-5.333-5.233-12.253-7.81-19.148-7.746z" fill="#2e2ee6" paint-order="markers stroke fill"/><path d="M485.981 10L245.546 250.435 88.987 137.937 216.92 10.004z" fill="#adadad"/><path d="M161.833 50.975L26.33 186.552c-6.67 6.693-10.33 15.584-10.306 25.034.024 9.45 3.728 18.32 10.433 24.978l246.809 245.121c19.686 19.551 45.806 30.317 73.551 30.317h102.099c19.483 0 35.334-15.85 35.334-35.332v-30.667c0-38.603-22.862-73.523-58.24-88.965l-38.11-16.633c-15.803-6.897-26.745-21.198-29.272-38.254l-19.153-129.279a10.07 10.07 0 00-.277-1.246l-26.504-7.289h-72.02c-12.757 0-24.892-4.823-34.167-13.582-9.91-9.359-15.591-22.543-15.591-36.174v-14.522c0-13.46-4.142-26.274-11.792-37.023zM63.6 177.49l101.72 105.333c3.837 3.972 10.167 4.084 14.14.248l48.612 50.34c-3.973 3.836-4.084 10.166-.248 14.139l86.731 89.813c11.44 11.846 27.446 18.64 43.915 18.64h105.78v20.669c0 8.455-6.88 15.332-15.334 15.332H346.817c-22.428 0-43.543-8.703-59.457-24.508L40.55 222.375a15.228 15.228 0 01-4.527-10.84 15.23 15.23 0 014.472-10.864z" fill="#5e5eec"/><path d="M296.631 218.529a9.446 9.446 0 00-9.467 9.467 9.446 9.446 0 009.467 9.467h52.413l-2.805-18.934zM305.782 267.756a9.446 9.446 0 00-9.467 9.467 9.446 9.446 0 009.467 9.467h50.555l-2.805-18.934zM314.934 316.985a9.446 9.446 0 00-9.467 9.467 9.446 9.446 0 009.467 9.467h64.827a49.198 49.198 0 01-16.502-18.934z" fill="#2e2ee6"/></svg>