<?xml version="1.0" encoding="UTF-8" standalone="no"?>
<svg
   xmlns:dc="http://purl.org/dc/elements/1.1/"
   xmlns:cc="http://creativecommons.org/ns#"
   xmlns:rdf="http://www.w3.org/1999/02/22-rdf-syntax-ns#"
   xmlns:svg="http://www.w3.org/2000/svg"
   xmlns="http://www.w3.org/2000/svg"
   xmlns:sodipodi="http://sodipodi.sourceforge.net/DTD/sodipodi-0.dtd"
   xmlns:inkscape="http://www.inkscape.org/namespaces/inkscape"
   id="Layer_1"
   enable-background="new 0 0 512.004 512.004"
   height="512"
   viewBox="0 0 512.004 512.004"
   width="512"
   version="1.1"
   sodipodi:docname="007-running shoes.svg"
   inkscape:version="0.92.3 (2405546, 2018-03-11)">
  <metadata
     id="metadata15">
    <rdf:RDF>
      <cc:Work
         rdf:about="">
        <dc:format>image/svg+xml</dc:format>
        <dc:type
           rdf:resource="http://purl.org/dc/dcmitype/StillImage" />
      </cc:Work>
    </rdf:RDF>
  </metadata>
  <defs
     id="defs13">
    <inkscape:path-effect
       effect="simplify"
       id="path-effect7059"
       is_visible="true"
       steps="1"
       threshold="9.90099e-05"
       smooth_angles="360"
       helper_size="0"
       simplify_individual_paths="false"
       simplify_just_coalesce="false"
       simplifyindividualpaths="false"
       simplifyJustCoalesce="false" />
    <inkscape:path-effect
       effect="simplify"
       id="path-effect7055"
       is_visible="true"
       steps="1"
       threshold="9.90099e-05"
       smooth_angles="360"
       helper_size="0"
       simplify_individual_paths="false"
       simplify_just_coalesce="false"
       simplifyindividualpaths="false"
       simplifyJustCoalesce="false" />
    <inkscape:path-effect
       effect="spiro"
       id="path-effect7051"
       is_visible="true" />
    <inkscape:path-effect
       effect="simplify"
       id="path-effect7049"
       is_visible="true"
       steps="1"
       threshold="9.90099e-05"
       smooth_angles="360"
       helper_size="0"
       simplify_individual_paths="false"
       simplify_just_coalesce="false"
       simplifyindividualpaths="false"
       simplifyJustCoalesce="false" />
    <inkscape:path-effect
       effect="spiro"
       id="path-effect7045"
       is_visible="true" />
    <inkscape:path-effect
       effect="simplify"
       id="path-effect7043"
       is_visible="true"
       steps="1"
       threshold="0.000408163"
       smooth_angles="360"
       helper_size="0"
       simplify_individual_paths="false"
       simplify_just_coalesce="false"
       simplifyindividualpaths="false"
       simplifyJustCoalesce="false" />
    <inkscape:path-effect
       effect="simplify"
       id="path-effect7059-6"
       is_visible="true"
       steps="1"
       threshold="0.0001"
       smooth_angles="360"
       helper_size="0"
       simplify_individual_paths="false"
       simplify_just_coalesce="false"
       simplifyindividualpaths="false"
       simplifyJustCoalesce="false" />
    <inkscape:path-effect
       effect="simplify"
       id="path-effect7055-2"
       is_visible="true"
       steps="1"
       threshold="0.0001"
       smooth_angles="360"
       helper_size="0"
       simplify_individual_paths="false"
       simplify_just_coalesce="false"
       simplifyindividualpaths="false"
       simplifyJustCoalesce="false" />
    <inkscape:path-effect
       effect="spiro"
       id="path-effect7051-9"
       is_visible="true" />
    <inkscape:path-effect
       effect="simplify"
       id="path-effect7043-1"
       is_visible="true"
       steps="1"
       threshold="0.000408163"
       smooth_angles="360"
       helper_size="0"
       simplify_individual_paths="false"
       simplify_just_coalesce="false"
       simplifyindividualpaths="false"
       simplifyJustCoalesce="false" />
    <inkscape:path-effect
       effect="spiro"
       id="path-effect7045-2"
       is_visible="true" />
  </defs>
  <sodipodi:namedview
     pagecolor="#ffffff"
     bordercolor="#666666"
     borderopacity="1"
     objecttolerance="10"
     gridtolerance="10"
     guidetolerance="10"
     inkscape:pageopacity="0"
     inkscape:pageshadow="2"
     inkscape:window-width="1895"
     inkscape:window-height="1080"
     id="namedview11"
     showgrid="false"
     inkscape:zoom="0.46682973"
     inkscape:cx="156.55299"
     inkscape:cy="-4.7822624"
     inkscape:window-x="25"
     inkscape:window-y="0"
     inkscape:window-maximized="1"
     inkscape:current-layer="layer1" />
  <g
     inkscape:groupmode="layer"
     id="layer1"
     inkscape:label="Layer 1"
     style="display:inline">
    <path
       style="fill:#2e2ee6;fill-opacity:1;stroke-width:0.8770389;paint-order:markers stroke fill"
       d="m 78.381668,161.58138 c -6.895549,0.065 -13.766221,2.772 -19.000148,8.10552 l -26.996305,27.50998 c -10.467855,10.66706 -10.30767,27.68088 0.359378,38.14874 L 291.65286,489.41986 c 5.88298,9.29274 16.24612,15.44348 28.10374,15.44348 h 122.72752 c 18.41875,0 33.24635,-14.82759 33.24635,-33.24635 v -20.08413 c 0,-18.41877 -14.8276,-33.24636 -33.24635,-33.24636 H 351.22755 L 97.530259,169.32753 c -5.333529,-5.23394 -12.253042,-7.81115 -19.148591,-7.74615 z"
       id="rect1012"
       inkscape:connector-curvature="0" />
    <path
       style="fill:#adadad;fill-opacity:1"
       inkscape:connector-curvature="0"
       d="M 485.981,10 245.546,250.435 88.987,137.937 216.92,10.004 Z"
       id="XMLID_1118_" />
    <path
       style="fill:#5e5eec;fill-opacity:1;stroke-width:0.99999219"
       d="M 161.83203,50.974609 26.330078,186.55078 c -6.669948,6.69295 -10.33064,15.58328 -10.30664,25.0332 0.024,9.44993 3.728646,18.32057 10.433593,24.97852 L 273.26367,481.68164 c 19.68585,19.55085 45.806,30.31641 73.55078,30.31641 h 102.09766 c 19.48285,0 35.33398,-15.85019 35.33398,-35.33203 V 446 c 0,-38.6027 -22.86151,-73.52296 -58.24023,-88.96484 L 387.89648,340.40234 C 372.09361,333.5054 361.15198,319.2043 358.625,302.14844 L 339.47266,172.87109 c -0.0636,-0.42733 -0.16312,-0.83983 -0.27735,-1.24609 l -26.5039,-7.28906 h -72.01953 c -12.75691,0 -24.89109,-4.8231 -34.16602,-13.58203 -9.90992,-9.35893 -15.5918,-22.54294 -15.5918,-36.17383 v -14.52149 c 0,-13.459707 -4.1411,-26.274471 -11.79101,-37.023434 z M 63.599609,177.48828 165.31836,282.82031 c 3.83697,3.97197 10.16766,4.08402 14.14062,0.24805 l 48.61133,50.33984 c -3.97297,3.83597 -4.08401,10.16571 -0.24804,14.13868 l 86.73046,89.8125 C 325.99265,449.20526 341.99793,456 358.4668,456 h 105.77929 v 20.66797 C 464.24609,485.1229 457.36704,492 448.91211,492 H 346.81445 c -22.42782,0 -43.54315,-8.70294 -59.45703,-24.50781 L 40.550781,222.37305 c -2.909977,-2.88998 -4.517346,-6.73988 -4.527343,-10.83985 -0.011,-4.10096 1.577678,-7.9583 4.472656,-10.86328 z"
       id="XMLID_1086_"
       inkscape:connector-curvature="0"
       transform="scale(1.0000078)" />
    <path
       style="fill:#2e2ee6;fill-opacity:1;stroke-width:0.99999219"
       d="m 296.62891,218.52734 c -5.24465,0 -9.4668,4.22215 -9.4668,9.4668 0,5.24465 4.22215,9.4668 9.4668,9.4668 h 52.41211 l -2.80469,-18.9336 z"
       id="path998"
       inkscape:connector-curvature="0"
       transform="scale(1.0000078)" />
    <path
       style="fill:#2e2ee6;fill-opacity:1;stroke-width:0.99999219"
       d="m 305.7793,267.75391 c -5.24465,0 -9.4668,4.22215 -9.4668,9.46679 0,5.24465 4.22215,9.4668 9.4668,9.4668 h 50.55468 l -2.80468,-18.93359 z"
       id="path1001"
       inkscape:connector-curvature="0"
       transform="scale(1.0000078)" />
    <path
       style="fill:#2e2ee6;fill-opacity:1;stroke-width:0.99999219"
       d="m 314.93164,316.98242 c -5.24465,0 -9.4668,4.22215 -9.4668,9.4668 0,5.24464 4.22215,9.4668 9.4668,9.4668 h 64.82617 c -7.09013,-4.8129 -12.74448,-11.3302 -16.50195,-18.9336 z"
       id="path1004"
       inkscape:connector-curvature="0"
       transform="scale(1.0000078)" />
  </g>
</svg>
