<svg xmlns="http://www.w3.org/2000/svg" viewBox="0 0 512 512"><path d="M358 420H154c-22.091 0-40-17.909-40-40V132c0-22.091 17.909-40 40-40h204c22.091 0 40 17.909 40 40v248c0 22.091-17.909 40-40 40z" fill="#5e5eec"/><path d="M358 92H154l17.275-58.993C175.269 19.37 187.776 10 201.986 10h108.029c14.209 0 26.717 9.37 30.71 23.007zM358 420H154l17.275 58.993C175.269 492.63 187.776 502 201.986 502h108.029c14.209 0 26.717-9.37 30.71-23.007z" fill="#adadad"/><path d="M295.553 171.214c-15.579 0-29.628 7.16-39.553 18.635-9.924-11.475-23.974-18.635-39.553-18.635-30.07 0-54.447 26.67-54.447 59.57 0 46.084 94 110.002 94 110.002s94-63.917 94-110.002c0-32.899-24.377-59.57-54.447-59.57z" fill="#2e2ee6"/><path d="M238.12 212.537a10 10 0 00-8.96 5.909l-10.352 23.091H155.785c-5.523 0-10 4.477-10 10 0 4.639 3.163 8.528 7.445 9.659h74.623a9.995 9.995 0 006.557-5.569l2.14-4.773 11.805 38.295a10.003 10.003 0 009.559 7.054 9.998 9.998 0 008.619-4.933l17.475-29.733h75.777c5.523 0 10-4.477 10-10 0-5.376-4.246-9.75-9.566-9.978h-82.262a9.99 9.99 0 00-8.293 4.912l-8.879 15.107-12.943-41.986a10.002 10.002 0 00-9.721-7.055z" fill="#bebebe"/></svg>