<svg xmlns="http://www.w3.org/2000/svg" data-name="Layer 1" viewBox="0 0 512 512">
    <path d="M110 211v245a40.036 40.036 0 0040.04 40h211.92A40.036 40.036 0 00402 456V211zM372.34 49.51l-36.89 55.19 58.9 7.44z" fill="#adadad" />
    <path d="M276.81 132.735L272.19 106h-32.58l-4.62 26.735c-2.1 12.1-3.66 24.343-4.67 36.562a103.515 103.515 0 0051.16-.031 412.555 412.555 0 00-4.67-36.531z" fill="#adadad" />
    <path d="M394.35 112.14l-12.53 98.95h-29.94l13.02-102.67z" fill="#2e2ee6" />
    <path d="M364.9 108.42l-13.02 102.67h-29.9l13.47-106.39z" fill="#5e5eec" />
    <path d="M281.48 169.36a412.216 412.216 0 011.36 41.73h-53.88a409.32 409.32 0 011.36-41.73 103.527 103.527 0 0051.16 0z" fill="#2e2ee6" />
    <path d="M177.04 16l17.25 195.09h-63L114.52 21.53zM270.6 39.2a44.366 44.366 0 018.35 50.2l-8.05 16.84v.01h-29.41v-.01l-8.26-16.85a44.381 44.381 0 018.7-51.12l14.12-13.93zM110.04 290.515h291.92v77.025H110.04z" fill="#5e5eec" />
    <path d="M140 456V211h-30v245a40.036 40.036 0 0040.04 40h30A40.036 40.036 0 01140 456z" fill="#2e2ee6" />
</svg>