<svg xmlns="http://www.w3.org/2000/svg" viewBox="0 0 512 512"><path d="M400.27 368.723l-15.305-32H128.032l-15.305 32H400.27z" fill="#5e5eec"/><path d="M357.008 282l85.703 184.217c3.263 7.389 11.912 5.57 18.384 5.783 14.057-.053 28.12.107 42.173-.08 7.74-.71 11.085-10.382 6.764-16.362L429.29 282h-72.281zM82.71 282C55.324 340.999 27.738 399.913.473 458.965c-2.622 7.316 4.735 14.43 11.98 13.035 16.402-.069 32.814.137 49.21-.104 7.868-1.249 9.076-10.074 12.385-15.906L154.992 282H82.711z" fill="#2e2ee6"/><path d="M61.578 130.28C24.34 134.96-3.382 172.38.005 209.281v65.577c1.335 13.565 16.695 9.31 26.057 10h475.943c13.565-1.334 9.31-16.695 10-26.057-.64-23.783 1.525-47.771-1.62-71.38-6.29-32.193-36.127-57.25-68.804-58.162-46.464-.934-93.025-.134-139.527-.4-76.72.162-153.479-.325-230.176.242l-10.3 1.177z" fill="#bebebe"/><path d="M351.067 42c-28.996.099-56.339 19.408-67.12 46.157-5.186 11.743-6.088 24.69-5.734 37.359.056 8.59-.448 17.628 3.062 25.658 6.75 14.715 26.28 21.303 40.526 13.558 9.876-4.814 16.176-15.39 16.196-26.277.623-8.298-.233-16.668.496-24.945 1.736-9.041 13.276-15.005 21.11-9.26 6.047 3.64 7.01 10.934 6.61 17.341v7.576h60c.09-12.9.457-26.143-4.385-38.366-9.781-27.811-37.479-48.194-67.029-48.767a75.78 75.78 0 00-3.732-.033zM126.534 42c-28.995.099-56.339 19.408-67.12 46.157-5.186 11.743-6.088 24.69-5.733 37.359.056 8.59-.449 17.628 3.061 25.658 6.75 14.715 26.28 21.303 40.527 13.558 9.876-4.814 16.175-15.39 16.196-26.277.622-8.298-.234-16.668.496-24.945 1.735-9.041 13.275-15.005 21.11-9.26 6.046 3.64 7.01 10.934 6.61 17.341v7.576h60c.089-12.9.456-26.143-4.386-38.366-9.78-27.811-37.478-48.194-67.028-48.767a75.78 75.78 0 00-3.733-.033z" fill="#2e2ee6"/></svg>